<mxfile host="app.diagrams.net" modified="2023-10-29T11:59:14.868Z" agent="Mozilla/5.0 (Windows NT 10.0; Win64; x64) AppleWebKit/537.36 (KHTML, like Gecko) Chrome/119.0.0.0 Safari/537.36" etag="WRAp21kMaj4yABLKltbp" version="22.0.8" type="device">
  <diagram name="Page-1" id="P_ic3nDjBp8IybQLhYE7">
    <mxGraphModel dx="913" dy="471" grid="1" gridSize="10" guides="1" tooltips="1" connect="1" arrows="1" fold="1" page="1" pageScale="1" pageWidth="850" pageHeight="1100" math="0" shadow="0">
      <root>
        <mxCell id="0" />
        <mxCell id="1" parent="0" />
        <mxCell id="MHtWxF7a9eN79icFtAgI-45" style="edgeStyle=orthogonalEdgeStyle;rounded=0;orthogonalLoop=1;jettySize=auto;html=1;exitX=1;exitY=0.5;exitDx=0;exitDy=0;entryX=0.5;entryY=0;entryDx=0;entryDy=0;" parent="1" source="MHtWxF7a9eN79icFtAgI-3" target="MHtWxF7a9eN79icFtAgI-9" edge="1">
          <mxGeometry relative="1" as="geometry" />
        </mxCell>
        <mxCell id="MHtWxF7a9eN79icFtAgI-3" value="Identify Relevant Meteorological Variables" style="rounded=1;whiteSpace=wrap;html=1;fillColor=#dae8fc;strokeColor=#6c8ebf;" parent="1" vertex="1">
          <mxGeometry x="180" y="65" width="120" height="60" as="geometry" />
        </mxCell>
        <mxCell id="MHtWxF7a9eN79icFtAgI-48" style="edgeStyle=orthogonalEdgeStyle;rounded=0;orthogonalLoop=1;jettySize=auto;html=1;exitX=1;exitY=0.25;exitDx=0;exitDy=0;entryX=0.25;entryY=0;entryDx=0;entryDy=0;" parent="1" source="MHtWxF7a9eN79icFtAgI-4" target="MHtWxF7a9eN79icFtAgI-9" edge="1">
          <mxGeometry relative="1" as="geometry" />
        </mxCell>
        <mxCell id="MHtWxF7a9eN79icFtAgI-49" style="edgeStyle=orthogonalEdgeStyle;rounded=0;orthogonalLoop=1;jettySize=auto;html=1;exitX=1;exitY=0.75;exitDx=0;exitDy=0;entryX=0.5;entryY=0;entryDx=0;entryDy=0;" parent="1" source="MHtWxF7a9eN79icFtAgI-4" target="MHtWxF7a9eN79icFtAgI-8" edge="1">
          <mxGeometry relative="1" as="geometry" />
        </mxCell>
        <mxCell id="MHtWxF7a9eN79icFtAgI-4" value="Identify Best Clear Sky Model&lt;br&gt;(Month-wise)" style="rounded=1;whiteSpace=wrap;html=1;fillColor=#dae8fc;strokeColor=#6c8ebf;" parent="1" vertex="1">
          <mxGeometry x="180" y="180" width="120" height="60" as="geometry" />
        </mxCell>
        <mxCell id="MHtWxF7a9eN79icFtAgI-30" style="edgeStyle=orthogonalEdgeStyle;rounded=0;orthogonalLoop=1;jettySize=auto;html=1;exitX=1;exitY=0.5;exitDx=0;exitDy=0;entryX=0;entryY=0.25;entryDx=0;entryDy=0;" parent="1" source="MHtWxF7a9eN79icFtAgI-5" target="MHtWxF7a9eN79icFtAgI-8" edge="1">
          <mxGeometry relative="1" as="geometry" />
        </mxCell>
        <mxCell id="MHtWxF7a9eN79icFtAgI-5" value="Perform Sky/Cloud Image Segmentation" style="rounded=1;whiteSpace=wrap;html=1;fillColor=#dae8fc;strokeColor=#6c8ebf;" parent="1" vertex="1">
          <mxGeometry x="180" y="295" width="120" height="60" as="geometry" />
        </mxCell>
        <mxCell id="MHtWxF7a9eN79icFtAgI-31" style="edgeStyle=orthogonalEdgeStyle;rounded=0;orthogonalLoop=1;jettySize=auto;html=1;exitX=1;exitY=0.5;exitDx=0;exitDy=0;entryX=0;entryY=0.75;entryDx=0;entryDy=0;" parent="1" source="MHtWxF7a9eN79icFtAgI-6" target="MHtWxF7a9eN79icFtAgI-8" edge="1">
          <mxGeometry relative="1" as="geometry" />
        </mxCell>
        <mxCell id="MHtWxF7a9eN79icFtAgI-6" value="Perform Sky/Cloud Image Classification" style="rounded=1;whiteSpace=wrap;html=1;fillColor=#dae8fc;strokeColor=#6c8ebf;" parent="1" vertex="1">
          <mxGeometry x="180" y="410" width="120" height="60" as="geometry" />
        </mxCell>
        <mxCell id="MHtWxF7a9eN79icFtAgI-32" style="edgeStyle=orthogonalEdgeStyle;rounded=0;orthogonalLoop=1;jettySize=auto;html=1;exitX=1;exitY=0.5;exitDx=0;exitDy=0;entryX=0.5;entryY=1;entryDx=0;entryDy=0;" parent="1" source="MHtWxF7a9eN79icFtAgI-7" target="MHtWxF7a9eN79icFtAgI-9" edge="1">
          <mxGeometry relative="1" as="geometry" />
        </mxCell>
        <mxCell id="MHtWxF7a9eN79icFtAgI-7" value="Encode Satellite Derived Cloud Masks (Autoencoder)" style="rounded=1;whiteSpace=wrap;html=1;fillColor=#dae8fc;strokeColor=#6c8ebf;" parent="1" vertex="1">
          <mxGeometry x="180" y="525" width="120" height="60" as="geometry" />
        </mxCell>
        <mxCell id="MHtWxF7a9eN79icFtAgI-34" style="edgeStyle=orthogonalEdgeStyle;rounded=0;orthogonalLoop=1;jettySize=auto;html=1;exitX=1;exitY=0.5;exitDx=0;exitDy=0;entryX=0;entryY=0.5;entryDx=0;entryDy=0;" parent="1" source="MHtWxF7a9eN79icFtAgI-8" target="MHtWxF7a9eN79icFtAgI-9" edge="1">
          <mxGeometry relative="1" as="geometry" />
        </mxCell>
        <mxCell id="MHtWxF7a9eN79icFtAgI-8" value="Encode GSI Images" style="rounded=1;whiteSpace=wrap;html=1;fillColor=#dae8fc;strokeColor=#6c8ebf;" parent="1" vertex="1">
          <mxGeometry x="370" y="352.5" width="120" height="60" as="geometry" />
        </mxCell>
        <mxCell id="MHtWxF7a9eN79icFtAgI-47" style="edgeStyle=orthogonalEdgeStyle;rounded=0;orthogonalLoop=1;jettySize=auto;html=1;exitX=1;exitY=0.5;exitDx=0;exitDy=0;entryX=0;entryY=0.5;entryDx=0;entryDy=0;" parent="1" source="MHtWxF7a9eN79icFtAgI-9" target="MHtWxF7a9eN79icFtAgI-46" edge="1">
          <mxGeometry relative="1" as="geometry" />
        </mxCell>
        <mxCell id="MHtWxF7a9eN79icFtAgI-9" value="Time Series Forecasting Model" style="rounded=1;whiteSpace=wrap;html=1;fillColor=#dae8fc;strokeColor=#6c8ebf;" parent="1" vertex="1">
          <mxGeometry x="560" y="295" width="120" height="60" as="geometry" />
        </mxCell>
        <mxCell id="MHtWxF7a9eN79icFtAgI-26" style="rounded=0;orthogonalLoop=1;jettySize=auto;html=1;exitX=1;exitY=0.5;exitDx=0;exitDy=0;entryX=0;entryY=0.5;entryDx=0;entryDy=0;" parent="1" source="MHtWxF7a9eN79icFtAgI-16" target="MHtWxF7a9eN79icFtAgI-5" edge="1">
          <mxGeometry relative="1" as="geometry" />
        </mxCell>
        <mxCell id="MHtWxF7a9eN79icFtAgI-27" style="rounded=0;orthogonalLoop=1;jettySize=auto;html=1;exitX=1;exitY=0.7;exitDx=0;exitDy=0;entryX=0;entryY=0.5;entryDx=0;entryDy=0;" parent="1" source="MHtWxF7a9eN79icFtAgI-16" target="MHtWxF7a9eN79icFtAgI-6" edge="1">
          <mxGeometry relative="1" as="geometry" />
        </mxCell>
        <mxCell id="MHtWxF7a9eN79icFtAgI-16" value="SIRTA Ground-based Sky Imager (GSI) Dataset" style="shape=datastore;whiteSpace=wrap;html=1;fillColor=#ffcc99;strokeColor=#36393d;" parent="1" vertex="1">
          <mxGeometry x="20" y="335" width="90" height="115" as="geometry" />
        </mxCell>
        <mxCell id="MHtWxF7a9eN79icFtAgI-21" style="rounded=0;orthogonalLoop=1;jettySize=auto;html=1;exitX=1;exitY=0.5;exitDx=0;exitDy=0;entryX=0;entryY=0.5;entryDx=0;entryDy=0;" parent="1" source="MHtWxF7a9eN79icFtAgI-17" target="MHtWxF7a9eN79icFtAgI-3" edge="1">
          <mxGeometry relative="1" as="geometry" />
        </mxCell>
        <mxCell id="MHtWxF7a9eN79icFtAgI-24" style="rounded=0;orthogonalLoop=1;jettySize=auto;html=1;exitX=1;exitY=0.7;exitDx=0;exitDy=0;entryX=0;entryY=0.25;entryDx=0;entryDy=0;" parent="1" source="MHtWxF7a9eN79icFtAgI-17" target="MHtWxF7a9eN79icFtAgI-4" edge="1">
          <mxGeometry relative="1" as="geometry" />
        </mxCell>
        <mxCell id="MHtWxF7a9eN79icFtAgI-17" value="SIRTA Meteorological Data (Ground-based Sensors)" style="shape=datastore;whiteSpace=wrap;html=1;fillColor=#ffcc99;strokeColor=#36393d;" parent="1" vertex="1">
          <mxGeometry x="20" y="65" width="90" height="115" as="geometry" />
        </mxCell>
        <mxCell id="MHtWxF7a9eN79icFtAgI-28" style="rounded=0;orthogonalLoop=1;jettySize=auto;html=1;exitX=1;exitY=0.5;exitDx=0;exitDy=0;entryX=0;entryY=0.5;entryDx=0;entryDy=0;" parent="1" source="MHtWxF7a9eN79icFtAgI-19" target="MHtWxF7a9eN79icFtAgI-7" edge="1">
          <mxGeometry relative="1" as="geometry" />
        </mxCell>
        <mxCell id="MHtWxF7a9eN79icFtAgI-19" value="METEOSAT Satellite-derived&lt;br&gt;Cloud Masks (RSS SEVIRI)" style="shape=datastore;whiteSpace=wrap;html=1;fillColor=#ffcc99;strokeColor=#36393d;" parent="1" vertex="1">
          <mxGeometry x="20" y="470" width="90" height="115" as="geometry" />
        </mxCell>
        <mxCell id="MHtWxF7a9eN79icFtAgI-25" style="rounded=0;orthogonalLoop=1;jettySize=auto;html=1;exitX=1;exitY=0.5;exitDx=0;exitDy=0;entryX=0;entryY=0.75;entryDx=0;entryDy=0;" parent="1" source="MHtWxF7a9eN79icFtAgI-20" target="MHtWxF7a9eN79icFtAgI-4" edge="1">
          <mxGeometry relative="1" as="geometry" />
        </mxCell>
        <mxCell id="MHtWxF7a9eN79icFtAgI-20" value="NSRDB Satellite-based Data&lt;br&gt;(Clearsky GHI)" style="shape=datastore;whiteSpace=wrap;html=1;fillColor=#ffcc99;strokeColor=#36393d;" parent="1" vertex="1">
          <mxGeometry x="20" y="200" width="90" height="115" as="geometry" />
        </mxCell>
        <mxCell id="MHtWxF7a9eN79icFtAgI-43" style="edgeStyle=orthogonalEdgeStyle;rounded=0;orthogonalLoop=1;jettySize=auto;html=1;exitX=0.5;exitY=0;exitDx=0;exitDy=0;entryX=0.5;entryY=1;entryDx=0;entryDy=0;" parent="1" source="MHtWxF7a9eN79icFtAgI-42" target="MHtWxF7a9eN79icFtAgI-8" edge="1">
          <mxGeometry relative="1" as="geometry" />
        </mxCell>
        <mxCell id="MHtWxF7a9eN79icFtAgI-44" style="edgeStyle=orthogonalEdgeStyle;rounded=0;orthogonalLoop=1;jettySize=auto;html=1;exitX=1;exitY=0.5;exitDx=0;exitDy=0;entryX=0.25;entryY=1;entryDx=0;entryDy=0;" parent="1" source="MHtWxF7a9eN79icFtAgI-42" target="MHtWxF7a9eN79icFtAgI-9" edge="1">
          <mxGeometry relative="1" as="geometry" />
        </mxCell>
        <mxCell id="MHtWxF7a9eN79icFtAgI-42" value="Compute SZA &amp;amp; SAA&lt;br&gt;(for each timestamp)" style="rounded=1;whiteSpace=wrap;html=1;fillColor=#e1d5e7;strokeColor=#9673a6;" parent="1" vertex="1">
          <mxGeometry x="370" y="450" width="120" height="60" as="geometry" />
        </mxCell>
        <mxCell id="MHtWxF7a9eN79icFtAgI-46" value="GHI Forecast" style="shape=parallelogram;perimeter=parallelogramPerimeter;whiteSpace=wrap;html=1;fixedSize=1;fillColor=#d5e8d4;strokeColor=#82b366;" parent="1" vertex="1">
          <mxGeometry x="730" y="295" width="120" height="60" as="geometry" />
        </mxCell>
      </root>
    </mxGraphModel>
  </diagram>
</mxfile>
